<svg width="150" height="150" viewBox="0 0 150 150" fill="none" xmlns="http://www.w3.org/2000/svg">
<circle cx="75" cy="75" r="75" fill="black"/>
<circle cx="92" cy="56" r="50" fill="#FFD600"/>
<path d="M120.059 50.5652C118.428 52.145 116.556 53.1169 114.443 53.4809C112.345 53.8599 110.226 53.664 108.088 52.8931C109.007 55.3093 109.241 57.6925 108.791 60.0426C108.355 62.4077 107.247 64.4526 105.466 66.1774C102.638 68.9168 99.458 70.1403 95.9267 69.8481C92.4098 69.5709 89.1441 67.8759 86.1293 64.7631C83.0856 61.6205 81.4814 58.2872 81.3168 54.7633C81.1816 51.2399 82.5207 48.1157 85.3342 45.3909C87.1001 43.6806 89.1576 42.6159 91.5069 42.1967C93.8707 41.7925 96.2454 42.0884 98.631 43.0842C97.9434 40.9369 97.8298 38.8282 98.2902 36.7582C98.7506 34.6881 99.7889 32.8704 101.405 31.3051C104.159 28.6382 107.199 27.405 110.525 27.6056C113.852 27.8061 116.914 29.3505 119.711 32.2388C122.494 35.1121 123.932 38.2143 124.026 41.5456C124.135 44.8918 122.812 47.8983 120.059 50.5652ZM101.534 61.9376C103.36 60.1694 104.283 58.1436 104.305 55.8603C104.342 53.5919 103.454 51.5225 101.642 49.6518C99.8303 47.7812 97.805 46.828 95.5661 46.7921C93.3417 46.7713 91.3017 47.6595 89.446 49.4567C87.5904 51.254 86.6603 53.2134 86.6558 55.3349C86.6659 57.4714 87.6202 59.5198 89.5189 61.4803C91.4031 63.4257 93.4128 64.4376 95.5478 64.516C97.6979 64.5798 99.6932 63.7204 101.534 61.9376ZM116.299 35.5434C114.719 33.9122 112.928 33.0806 110.924 33.0485C108.951 33.017 107.096 33.8418 105.36 35.5231C103.699 37.132 102.83 38.9303 102.754 40.918C102.708 42.9063 103.489 44.731 105.098 46.3921C106.706 48.0532 108.498 48.8848 110.472 48.8869C112.476 48.8895 114.308 48.0864 115.969 46.4776C117.631 44.8688 118.485 43.0408 118.532 40.9936C118.58 38.9464 117.835 37.1297 116.299 35.5434Z" fill="white"/>
</svg>
